<svg xmlns="http://www.w3.org/2000/svg" viewBox="0 0 239.16 260.16"><defs><style>.cls-1{fill:#fefefe;}.cls-2{fill:#30b1ff;}.cls-3{fill:#f4f4f4;}.cls-4{fill:#fff;}.cls-5{fill:#606060;}</style></defs><title>logo</title><g id="Layer_2" data-name="Layer 2"><g id="Layer_1-2" data-name="Layer 1"><path class="cls-1" d="M.25,256.83c0,3,.6,3.59,3.58,3.58q116-.15,232,0c3,0,3.59-.6,3.58-3.58q-.15-126.49,0-253c0-3-.6-3.59-3.58-3.58q-116,.15-232,0C.85.24.24.85.25,3.83q.18,63.49.08,127Q.33,193.83.25,256.83ZM42.41,232.2c-3.2-13.58-1.3-26,8.73-36.55,6.51-6.86,8.82-15,6.28-24.38-.56-2.08-.82-4.24-1.18-6.36-2.58-14.9,3.32-23.3,18.12-25.78,1.51-1.43,3.39-.75,5.12-.82,2-.09,4,.15,4.94-2.17-.24-1.13-.47-2.26-.71-3.39-3-14.59-2.71-28.8,5.38-41.91C93.31,84,99.54,80,107.75,80.46c9.29.53,17.76,3.15,24.48,10.37,10,10.78,15.46,23.86,20.05,37.48s6,27.85,8.76,41.83c4.13,20.93,7.73,41.83,7.37,63.28-.08,4.55-.87,6.31-5.95,6.13-12.14-.45-24.31-.35-36.45,0-4.12.1-5.34-1.2-4.55-5l-1-1.19c.28,2.91-.47,4.26-3.94,4.05-7.3-.44-7.64-.45-9.72-7.57-.65-2.22-1.12-4.5-1.89-6.68-1.12-3.19-1.27-6,1.48-8.58,2-1.88,1.44-3.55-.49-5.36-2.63-2.45-5.57-4.68-7.29-8a3.81,3.81,0,0,1-4.53,0c-4.72,7.43-8.23,15.5-12.23,23.31-1.56,3-2.68,5.27,2,6.46,3.57.9,2.48,4.38,2.34,6.8-.16,3-2.85,1.53-4.33,1.55-10,.14-20,.08-29.95.08C44.62,239.41,44.06,239.19,42.41,232.2ZM113.33,77.48c12.73-18.07,28.2-32.15,49.1-39.55,3.18-1.13,5.62-.86,8,1.9,4.92,5.79,9,12.08,10.76,19.47,1,4.2,2,7.76,6.77,9.09,1.24.34,2.28,1.87,3.15,3,1.74,2.33,1.47,3.75-1.62,5.08-5.9,2.53-11.64,4.53-18.24,2.92-3.69-.9-7.66-.61-11.38-1.43-5-1.12-5.72,1.45-5.48,5.4a13,13,0,0,0,1.51,5.22c.67,1.31,1.5,2.65.48,4.19-2.81,4.26-.3,6.11,3.26,8,5,2.58,10.17,2.08,15.65,1.43-3.31,6.7-2.6,11.26,2.14,15.81,5.17,5,7.76,5.28,14.43,1.59a26.27,26.27,0,0,1,1.43,4.13c3.72,21.12-5.72,37.56-19.3,52.15-4.17,4.48-6.94,3.11-8.52-3a88.27,88.27,0,0,1-1.91-8.76c-2.38-15.31-5.47-30.48-11.26-44.87C144.73,100.55,136.27,82.43,113.33,77.48Zm48,10.88c-1-1-2.61-2.09-1.74-3.75.71-1.33,2.43-.73,3.67-.72,9.28.12,18.57.86,28.25-1.5-2.87,8.93-2.87,8.92-10.73,6.94-1.21-.3-2.27-1.09-3.74-.1C169.75,94.2,167,94,161.36,88.36Zm10.5,104.2c-2.22-5.17-1.62-9.66,2.94-13.41a50.32,50.32,0,0,0,9.26-10.44c8.68-12.61,15.2-26.13,12.62-41.88-1.15-7-2.78-13.46,2.16-19.57a2.22,2.22,0,0,0,.19-2.77c-.82-1-1.9-.28-2.74.09a12.3,12.3,0,0,1-10.39.24c3.29-1,6.93-.15,8.28-2.82,1.1-2.17-2.44-3.13-3.51-5.48,2.58-.22,3.7-1.41,3.68-3.92,0-2.32.46-4.63.59-7,.1-1.79.77-2.29,2.53-1.74,17.15,5.28,31.65,16.11,32.81,37.38a211,211,0,0,1-1,36.4,404.25,404.25,0,0,1-17,78.37c-.54,1.66-.79,3.43-3.41,3.4-10.83-.12-21.66-.06-32.49,0-2.13,0-2.86-.81-3.09-2.88-.74-6.88.31-9,6.91-12.42,3.18-1.62,4.22-3.22,2.41-6.94C178.72,209.17,175.42,200.8,171.86,192.56ZM178.46,96c-.17-1.38-.05-2.94,1.28-3.49,1.91-.79,1.64,1.53,2.53,2.29a6.56,6.56,0,0,1,1.07,1.45l0,0c0-1.34-1.26-2.54-.5-4.13,2.62.5,5.27,1.82,4.84,4.3-.31,1.79-2.83.93-4.34-.17v0l0,0-.05,0c.55,2.93-1.75,2.19-3.15,2.27C178.49,98.61,178.6,97.13,178.46,96Z" transform="translate(-0.25 -0.25)"/><path class="cls-2" d="M51.14,195.65c-10,10.57-11.93,23-8.73,36.55,1.65,7,2.21,7.21,9.48,7.21,10,0,20,.06,29.95-.08,1.48,0,4.17,1.42,4.33-1.55.14-2.42,1.23-5.9-2.34-6.8-4.7-1.19-3.58-3.41-2-6.46,4-7.81,7.51-15.88,12.23-23.31,3.23-8.61,3.24-8.69,11.18-7.83,1.89.2,2.24-.34,2.23-2,0-4.81-.71-9.67.87-14.38.55-1.65-.59-2.5-1.56-3.35-8.7-7.58-15-17-19.73-27.33-2.59-5.63-6.08-8.19-11.9-7.3l-.77.14c-14.8,2.48-20.7,10.88-18.12,25.78.36,2.12.62,4.28,1.18,6.36C60,180.61,57.65,188.79,51.14,195.65Z" transform="translate(-0.25 -0.25)"/><path class="cls-3" d="M74.36,139.13l.77-.14c4.6-.84,8.13-.17,10.85,3.27a18.16,18.16,0,0,1-1.56-6.12c-1,2.32-3,2.08-4.94,2.17C77.75,138.38,75.87,137.7,74.36,139.13Z" transform="translate(-0.25 -0.25)"/><path class="cls-3" d="M75.13,139c5.82-.89,9.31,1.67,11.9,7.3,4.74,10.34,11,19.75,19.73,27.33,1,.85,2.11,1.7,1.56,3.35-1.58,4.71-.87,9.57-.87,14.38,0,1.69-.34,2.23-2.23,2-7.94-.86-8-.78-11.18,7.83a5,5,0,0,0,2.68-2.83c1.34-3.56,3.36-5.36,7.53-4.24,2.06.56,3.38-.46,3.92-2.3a23.7,23.7,0,0,1,.34-2.65c.29-4.2.15-8.41.74-12.59.31-2.13-1-3.83-2.56-5.17A73.78,73.78,0,0,1,89.11,148c-.44-.7-.86-1.41-1.28-2.12A32.82,32.82,0,0,1,86,142.26C83.26,138.82,79.73,138.15,75.13,139Z" transform="translate(-0.25 -0.25)"/><path class="cls-2" d="M89.09,90.84C81,104,80.68,118.16,83.71,132.75c.24,1.13.47,2.26.71,3.39,5.9,13.82,15.5,25.07,25.22,36.22a8.71,8.71,0,0,1,2.15,8.63c-1.56,6.27-3.31,12.6-1.36,19.15a67.48,67.48,0,0,0,13.72,17.51c3.58,3.38,5.32,6.36,1,10.54-1.7,1.64-2.5,4.21-3.71,6.35-.79,3.77.43,5.07,4.55,5,12.14-.31,24.31-.41,36.45,0,5.08.18,5.87-1.58,5.95-6.13.36-21.45-3.24-42.35-7.37-63.28-2.76-14-4.18-28.22-8.76-41.83s-10-26.7-20.05-37.48C125.51,83.61,117,81,107.75,80.46,99.54,80,93.31,84,89.09,90.84Z" transform="translate(-0.25 -0.25)"/><path class="cls-3" d="M84.42,136.14A18.16,18.16,0,0,0,86,142.26a16.5,16.5,0,0,1,2.12,3.56c.33.72.66,1.43,1,2.14a165.11,165.11,0,0,0,18.19,23.62c2.92,3.24,3.89,6.48,2.79,10.88-.56,2.22-1.18,4.47-1.58,6.73,0,.44-.06.87-.1,1.31a6.79,6.79,0,0,1-.24,1.34,17.25,17.25,0,0,0,.26,5.11,7.3,7.3,0,0,1,1.35,3.09c.08.21.16.42.25.63.14-.17.27-.35.4-.53-2-6.55-.2-12.88,1.36-19.15a8.71,8.71,0,0,0-2.15-8.63C99.92,161.21,90.32,150,84.42,136.14Z" transform="translate(-0.25 -0.25)"/><path class="cls-3" d="M86,142.26a32.82,32.82,0,0,0,1.85,3.58c.42.71.84,1.42,1.28,2.12-.35-.71-.68-1.42-1-2.14A16.5,16.5,0,0,0,86,142.26Z" transform="translate(-0.25 -0.25)"/><path class="cls-3" d="M89.11,148a73.78,73.78,0,0,0,17.58,23.47c1.53,1.34,2.87,3,2.56,5.17-.59,4.18-.45,8.39-.74,12.59.4-2.26,1-4.51,1.58-6.73,1.1-4.4.13-7.64-2.79-10.88A165.11,165.11,0,0,1,89.11,148Z" transform="translate(-0.25 -0.25)"/><path class="cls-3" d="M94,201.21a3.81,3.81,0,0,0,4.53,0c-1.85-4.37-.12-7.26,4.23-6.93a7.38,7.38,0,0,1,5.63,2.65,17.25,17.25,0,0,1-.26-5.11c-.54,1.84-1.86,2.86-3.92,2.3-4.17-1.12-6.19.68-7.53,4.24A5,5,0,0,1,94,201.21Z" transform="translate(-0.25 -0.25)"/><path class="cls-3" d="M102.8,194.3c-4.35-.33-6.08,2.56-4.23,6.93.14-2.33-.53-5.5,2.83-5.71,3.91-.24,7.27,1.25,8.19,5.74.08-.11.17-.22.25-.34-.15-.3-.3-.62-.44-.93a14.88,14.88,0,0,1-1-3A7.38,7.38,0,0,0,102.8,194.3Z" transform="translate(-0.25 -0.25)"/><path class="cls-2" d="M101.4,195.52c-3.36.21-2.69,3.38-2.83,5.71,1.72,3.3,4.66,5.53,7.29,8,1.93,1.81,2.53,3.48.49,5.36-2.75,2.54-2.6,5.39-1.48,8.58.77,2.18,1.24,4.46,1.89,6.68,2.08,7.12,2.42,7.13,9.72,7.57,3.47.21,4.22-1.14,3.94-4.05,0-2.49,1.49-4.43,3-6,2.45-2.55,2.21-4.28-.16-6.9-5.3-5.82-10.94-11.48-13.7-19.15C108.67,196.77,105.31,195.28,101.4,195.52Z" transform="translate(-0.25 -0.25)"/><path class="cls-3" d="M108.17,191.84a6.79,6.79,0,0,0,.24-1.34c0-.44.08-.87.1-1.31A23.7,23.7,0,0,0,108.17,191.84Z" transform="translate(-0.25 -0.25)"/><path class="cls-3" d="M108.43,197a14.88,14.88,0,0,0,1,3c.14.31.29.63.44.93a2.35,2.35,0,0,0,.19-.25c-.09-.21-.17-.42-.25-.63A7.3,7.3,0,0,0,108.43,197Z" transform="translate(-0.25 -0.25)"/><path class="cls-4" d="M109.84,200.92c-.08.12-.17.23-.25.34a1.87,1.87,0,0,0,.41,0C110,201.15,109.89,201,109.84,200.92Z" transform="translate(-0.25 -0.25)"/><path class="cls-4" d="M110,201.26a1.87,1.87,0,0,1-.41,0c2.76,7.67,8.4,13.33,13.7,19.15,2.37,2.62,2.61,4.35.16,6.9-1.54,1.61-3,3.55-3,6a15.91,15.91,0,0,0,1.73-2.28,12.05,12.05,0,0,1,2.18-3.75c1.65-1.95,2.08-3.64,1.61-5.22-.27-.45-.61-.89-.93-1.35a28.76,28.76,0,0,0-2.25-2.78A55.85,55.85,0,0,1,110,201.26Z" transform="translate(-0.25 -0.25)"/><path class="cls-4" d="M109.84,200.92c.05.12.11.23.16.34a.77.77,0,0,0,.27,0c-.09-.18-.16-.36-.24-.55A2.35,2.35,0,0,1,109.84,200.92Z" transform="translate(-0.25 -0.25)"/><path class="cls-4" d="M110.43,200.14c-.13.18-.26.36-.4.53.08.19.15.37.24.55C110.67,201.12,110.78,200.81,110.43,200.14Z" transform="translate(-0.25 -0.25)"/><path class="cls-4" d="M110.27,201.22a.77.77,0,0,1-.27,0A55.85,55.85,0,0,0,122.76,218c-2.2-2.44-4.66-4.64-6.6-7.3A51.32,51.32,0,0,1,110.27,201.22Z" transform="translate(-0.25 -0.25)"/><path class="cls-4" d="M110.43,200.14c.35.67.24,1-.16,1.08a51.32,51.32,0,0,0,5.89,9.45c1.94,2.66,4.4,4.86,6.6,7.3.17.17.35.33.53.49a8.5,8.5,0,0,1,2.65,3.64,2.6,2.6,0,0,1-.24,3.46,46.61,46.61,0,0,0-3.55,5.51,10.87,10.87,0,0,0-.69,3.47c1.21-2.14,2-4.71,3.71-6.35,4.3-4.18,2.56-7.16-1-10.54A67.48,67.48,0,0,1,110.43,200.14Z" transform="translate(-0.25 -0.25)"/><path class="cls-4" d="M120.42,233.35l1,1.19a10.87,10.87,0,0,1,.69-3.47A15.91,15.91,0,0,1,120.42,233.35Z" transform="translate(-0.25 -0.25)"/><path class="cls-4" d="M124.33,227.32a12.05,12.05,0,0,0-2.18,3.75,46.61,46.61,0,0,1,3.55-5.51,2.6,2.6,0,0,0,.24-3.46C126.41,223.68,126,225.37,124.33,227.32Z" transform="translate(-0.25 -0.25)"/><path class="cls-4" d="M123.29,218.46c-.18-.16-.36-.32-.53-.49a28.76,28.76,0,0,1,2.25,2.78c.32.46.66.9.93,1.35A8.5,8.5,0,0,0,123.29,218.46Z" transform="translate(-0.25 -0.25)"/><path class="cls-2" d="M162.43,37.93c-20.9,7.4-36.37,21.48-49.1,39.55,22.94,5,31.4,23.07,38.93,41.77,5.79,14.39,8.88,29.56,11.26,44.87a88.27,88.27,0,0,0,1.91,8.76c1.58,6.11,4.35,7.48,8.52,3,13.58-14.59,23-31,19.3-52.15a26.27,26.27,0,0,0-1.43-4.13c-6.67,3.69-9.26,3.39-14.43-1.59-4.74-4.55-5.45-9.11-2.14-15.81-5.48.65-10.68,1.15-15.65-1.43-3.56-1.85-6.07-3.7-3.26-8,1-1.54.19-2.88-.48-4.19a13,13,0,0,1-1.51-5.22c-.24-4,.46-6.52,5.48-5.4,3.72.82,7.69.53,11.38,1.43,6.6,1.61,12.34-.39,18.24-2.92,3.09-1.33,3.36-2.75,1.62-5.08-.87-1.17-1.91-2.7-3.15-3-4.77-1.33-5.75-4.89-6.77-9.09-1.78-7.39-5.84-13.68-10.76-19.47C168.05,37.07,165.61,36.8,162.43,37.93Z" transform="translate(-0.25 -0.25)"/><path class="cls-2" d="M159.62,84.61c-.87,1.66.72,2.74,1.74,3.75,5.68,5.65,8.39,5.84,15.71.87,1.47-1,2.53-.2,3.74.1,7.86,2,7.86,2,10.73-6.94-9.68,2.36-19,1.62-28.25,1.5C162.05,83.88,160.33,83.28,159.62,84.61Z" transform="translate(-0.25 -0.25)"/><path class="cls-2" d="M174.8,179.15c-4.56,3.75-5.16,8.24-2.94,13.41,3.56,8.24,6.86,16.61,10.8,24.66,1.81,3.72.77,5.32-2.41,6.94-6.6,3.37-7.65,5.54-6.91,12.42.23,2.07,1,2.9,3.09,2.88,10.83-.07,21.66-.13,32.49,0,2.62,0,2.87-1.74,3.41-3.4a404.25,404.25,0,0,0,17-78.37,211,211,0,0,0,1-36.4c-1.16-21.27-15.66-32.1-32.81-37.38-1.76-.55-2.43,0-2.53,1.74-.13,2.33-.6,4.64-.59,7,0,2.51-1.1,3.7-3.68,3.92,1.07,2.35,4.61,3.31,3.51,5.48-1.35,2.67-5,1.85-8.28,2.82a12.3,12.3,0,0,0,10.39-.24c.84-.37,1.92-1.09,2.74-.09a2.22,2.22,0,0,1-.19,2.77c-4.94,6.11-3.31,12.55-2.16,19.57,2.58,15.75-3.94,29.27-12.62,41.88A50.32,50.32,0,0,1,174.8,179.15Z" transform="translate(-0.25 -0.25)"/><path class="cls-2" d="M179.74,92.53c-1.33.55-1.45,2.11-1.28,3.49.14,1.11,0,2.59,1.69,2.49,1.4-.08,3.7.66,3.15-2.27l0,0a6.56,6.56,0,0,0-1.07-1.45C181.38,94.06,181.65,91.74,179.74,92.53Z" transform="translate(-0.25 -0.25)"/><path class="cls-2" d="M182.89,92.17c-.76,1.59.53,2.79.5,4.13,1.51,1.1,4,2,4.34.17C188.16,94,185.51,92.67,182.89,92.17Z" transform="translate(-0.25 -0.25)"/><path class="cls-5" d="M183.3,96.24l.05,0s0,0,0,0Z" transform="translate(-0.25 -0.25)"/><path class="cls-5" d="M183.34,96.27s0,0,0,0l0,0v0Z" transform="translate(-0.25 -0.25)"/></g></g></svg>