<svg xmlns="http://www.w3.org/2000/svg" viewBox="0 0 210 79.62"><defs><style>.cls-1{fill:none;}.cls-2{font-size:28.91px;}.cls-11,.cls-2,.cls-9{fill:#30b1ff;}.cls-11,.cls-2{font-family:Modern-Regular, Modern No. 20;}.cls-3{font-size:9.57px;font-family:BellMT, Bell MT;}.cls-4{letter-spacing:-0.01em;}.cls-5{letter-spacing:0.23em;}.cls-6{letter-spacing:-0.06em;}.cls-7{letter-spacing:-0.11em;}.cls-8{letter-spacing:-0.01em;}.cls-10{fill:#4abbff;}.cls-11{font-size:16.34px;stroke:#30b1ff;stroke-miterlimit:10;}.cls-12{fill:#fafefe;}.cls-13{fill:#f8fefe;}</style></defs><title>name with logo</title><g id="Layer_2" data-name="Layer 2"><g id="Layer_1-2" data-name="Layer 1"><rect class="cls-1" y="34.76" width="191.02" height="44.86"/><text class="cls-2" transform="translate(44.48 47.4) scale(0.73 1)"><tspan xml:space="preserve">T          Aerospace</tspan><tspan class="cls-3"><tspan x="-21.71" y="11.48">Squaring solutions through the p</tspan><tspan class="cls-4" x="107.68" y="11.48">ow</tspan><tspan x="119" y="11.48">er o</tspan><tspan class="cls-5" x="133.95" y="11.48">f</tspan><tspan x="138.81" y="11.48" xml:space="preserve">  </tspan><tspan class="cls-6" x="143.59" y="11.48">U</tspan><tspan class="cls-7" x="150.29" y="11.48">A</tspan><tspan x="155.86" y="11.48" xml:space="preserve">V  digital im</tspan><tspan class="cls-8" x="204.7" y="11.48">a</tspan><tspan x="208.75" y="11.48">ging</tspan></tspan></text><line class="cls-9" x1="44" y1="48.62" x2="194" y2="48.62"/><path class="cls-10" d="M194,48.79c.08,0,0-.07-.18-.06l-.15.08Z"/><path class="cls-10" d="M192.54,48.63c-.26,0-.55.11-.39.19.25-.08.31,0,.59-.14s.38,0,.34.06a2.51,2.51,0,0,0,.46,0,2.93,2.93,0,0,0-1,0C192.44,48.67,192.52,48.65,192.54,48.63Z"/><path class="cls-10" d="M171.26,48.5h0Z"/><path class="cls-10" d="M158.08,48.46c.1,0,.14,0,.15,0Z"/><path class="cls-10" d="M155.83,48.37h0Z"/><path class="cls-10" d="M171.26,48.5l-.35,0S171.09,48.5,171.26,48.5Z"/><path class="cls-10" d="M189.6,48.83l.19,0h-.19Z"/><path class="cls-10" d="M177.07,48.44h.11l.09,0Z"/><path class="cls-10" d="M181.53,48.42c-.1,0-.14.07-.17.1a.57.57,0,0,1,.22,0S181.57,48.44,181.53,48.42Z"/><path class="cls-10" d="M188.6,48.55h0Z"/><path class="cls-10" d="M173.88,48.42l0,0Z"/><path class="cls-10" d="M49.17,48.95s0,0,0,0S49.13,48.95,49.17,48.95Z"/><path class="cls-10" d="M44,48.6h.07a.09.09,0,0,0,0,0Z"/><path class="cls-10" d="M151.72,48.28h0C151.84,48.27,151.78,48.27,151.72,48.28Z"/><path class="cls-10" d="M113.91,48.33c.43.06-.7.08-.05.15C113.8,48.45,114.44,48.37,113.91,48.33Z"/><path class="cls-10" d="M189.49,48.82h0Z"/><path class="cls-10" d="M113.86,48.48h0Z"/><path class="cls-10" d="M142.23,48.32l.1,0Z"/><path class="cls-10" d="M149.3,48.42h0Z"/><path class="cls-10" d="M138.56,48.42a1.41,1.41,0,0,0-.26,0h0A.71.71,0,0,1,138.56,48.42Z"/><path class="cls-10" d="M134.74,48.42h0Z"/><path class="cls-10" d="M60.78,48.92a.71.71,0,0,1-.18-.06C60.66,48.9,60.1,48.92,60.78,48.92Z"/><path class="cls-10" d="M189.6,48.79a.2.2,0,0,1-.11,0h.13S189.63,48.8,189.6,48.79Z"/><path class="cls-10" d="M138.4,49h0Z"/><path class="cls-10" d="M88.19,48.91h0Z"/><path class="cls-10" d="M136,49l-.34,0-.07,0Z"/><path class="cls-10" d="M60.6,48.85h0Z"/><path class="cls-10" d="M56.6,49c.58,0,.27-.09.39-.14.69,0,.32.07.55.12.43,0,.76-.11,1.08-.11,0,0,.09,0,0,0,.46-.07,1.35,0,1.88-.1l.07,0c-.09,0-.1-.09-.08-.13.26,0,.48-.06.58,0a.58.58,0,0,0-.25,0l.27,0c.24.09-.37,0-.37.09.53,0,1.15-.1,1.55-.08.08.08-.95,0-.41.1l-.63,0c.48.13-.38,0,.06.13.83,0,.92,0,1.75,0,.19,0-.06-.07.12-.12,1.17-.08.92.21,1.78.1a1.69,1.69,0,0,1,.92-.11l-.21.1c.8,0,.46-.14,1.29-.07-.15,0-.63,0-.51,0,.54.08.38-.05.8-.05l.09.09c.85,0,1.79-.07,2.73-.09-.05,0-.21.05,0,.08,1.19,0,2.54,0,3.69.06l.44-.07c.1,0,.19,0,.08,0,.45,0,0,0,.24-.08s.34,0,.17.06a22.38,22.38,0,0,1,3.08-.06l-.16,0c.65,0,.73-.15,1.33-.08h-.12c1.41,0,3,0,4,.08.2-.11,1.39,0,1.48-.1.8.07.57.1,1.7.15.3,0,.45-.09.82-.11v.08l.51-.08.27.09.35,0c-.14,0-.3,0-.28-.06a5,5,0,0,1,1.35.09l1.29-.07a1.75,1.75,0,0,1-.42.06c.69-.08.13.08.76,0-.08,0,0,0,.06-.06a11.56,11.56,0,0,0,1.56,0l-.1.05c1,0,2,0,3.1,0-.39,0-.3-.12,0-.13l.13.08c.2-.05-.33,0,.09-.09s.27.09,0,.12l.49,0s-.09,0-.12.07c.2-.05.84.08,1.13,0l0,0c1.08,0,1.56,0,2.44,0,0-.07.36-.05.62-.11.64,0,1.36.08,2.14.07.55,0,.16-.06.4-.1,0,.06.82.06.41.1.93,0,1.19,0,2.37-.06-.13,0-.27,0-.2-.06s.49,0,.46.06h-.06c1.32-.1,3.05.19,4.11.05h-.06l1.09-.07c.5,0-.3,0,.07.09,1.18-.11,1.86,0,2.83-.06.75.19,2.67,0,3.68.11l-.06,0a1.49,1.49,0,0,1,.51,0s-.28,0-.12-.06c2.22-.05,4.58.06,6.86.11.83,0,.47-.23,1.52-.12l-.3.08c1.68-.1,3.44,0,5.08-.08a.78.78,0,0,1-.26,0,4.44,4.44,0,0,0,1.29,0c.26,0,.06,0,.22.07.35,0,.87-.08,1.06,0,0,0-.1,0-.16,0,.23,0,1.06,0,.84-.06.62,0,1.18,0,1.67,0,.32-.08,1.06,0,1.16-.07,0,.11,1.08.09,1.47,0-.13,0,.34,0,.19.08.45,0,.85,0,.78-.08.82.14,1.65-.11,2.11.06,1.32-.06,2.55-.1,3.74-.13,0,.11-1.32,0-1.26.13,1.13,0,1.78-.14,2.9-.12.29,0-.16,0-.26.07,1.13,0,2.18,0,3.18-.05a.86.86,0,0,1-.21,0c.2,0,.46,0,.44,0h-.19c-.32-.07.79-.16.82-.19-.34.15,1,0,.46.22.13,0,.29,0,.26-.07.19,0,.25,0,.06.07.71,0,.46-.08,1.1-.08,0,0-.13,0-.2.06a5.67,5.67,0,0,1,1.19-.08s0,0-.13,0c.93,0,1.59-.13,2.61-.08-.3.11.35,0,.4.13l.55,0-.22,0c.48,0,.91-.07,1.32,0l-.36,0,.9,0-.51,0c.49,0-.05-.12.59-.09-.13,0,.48,0,.73.06h0a4,4,0,0,1,.84,0c.09,0-.07.1,0,.12.23-.08,1.13,0,1.43-.1-.1,0-.1.07-.07.08l.2-.06c.22,0,.26,0,.22.07.67,0-.21-.12.58-.07l-.16,0c.8,0,1.55,0,2.28,0,.22.09-.64,0-.39.1,1.06,0,2.19-.11,3.22-.09h-.19c.14-.13.76.07,1.28,0-.13,0-.17.07-.13.06.7,0,1.44,0,2.5-.07l-.13,0c.41,0,1.09,0,1.54,0,.13,0,.39,0,.23-.08,1.38.19,2.63-.1,3.85.06-.15,0-.35,0-.23,0l1,0c-.08-.06-.14,0-.36-.08a3.42,3.42,0,0,1,.68-.06c-.47,0,0,.09.21.13,0,0,0,0,0-.06.54.1.09-.12.83,0l0,0c.28,0,.53-.06.83,0,.12.07-.3,0-.32.09a7.19,7.19,0,0,1,1.21-.06l-.61,0a3.54,3.54,0,0,0,.77.07h0l.71,0-.18,0a14.2,14.2,0,0,1,1.78-.15c-.69.11-.11.06-.17.14.18,0,.46,0,.38.07.34-.06.56,0,1,0,0,0,.36,0,.28.06.44,0-.1,0-.07-.07.67-.08,1.58.1,2.55,0s1-.13,1.76-.17c.26,0-.21.09-.21.09a6.74,6.74,0,0,0,1.14,0c-.08,0,0,0,.12.07.32,0,.21-.09.63-.05a1.5,1.5,0,0,1-.32.1l1.14-.09c.1,0-.23.06-.37.09a7.17,7.17,0,0,0,1.27-.11l-.28,0c.16,0,.08.06,0,.07-.37.05-.54,0-.56,0l.28,0a6.94,6.94,0,0,0-1.67,0l.23-.1-.57.09c-.12,0-.2-.09.07-.1-.4-.05-.35,0-.7,0,0,0,0,0,0,0l-.39,0c.08,0-.06-.07.17-.06-.7-.06-1.13.08-1.39,0h.06c-1,0-.09.08-.82.17l-.49-.19-.1.08c-.1,0-.3,0-.26,0-.37.05.06,0-.15.08-.48-.07-1.33,0-1.44-.09-.17.06.46,0-.05.09-.15-.13-.6,0-1,0,.14-.07.55,0,.11-.09a5.49,5.49,0,0,1-1.23,0,6.94,6.94,0,0,1-1.43.07s-1.17,0-1.76-.08l0,0a4.3,4.3,0,0,1-1.15.09c0-.05.1-.08.33-.1h-.41a2,2,0,0,1-.49.06l.1-.07c-.55,0-1.1.08-1.8,0,0,.06.56.18-.18.22,0,0-.05-.09.14-.11a1.89,1.89,0,0,1-.36,0l.3-.06c-.32,0-.17,0-.42,0,0,0-.19,0-.15-.07a2.33,2.33,0,0,0,.32,0,4.05,4.05,0,0,1-.75-.08s0,.07-.21.07c-.55,0-.19-.06-.51-.08-.13,0-.48,0-.49.07a.52.52,0,0,1-.25-.05c-.28,0-1.32,0-1,.09h0c-.93.07-1.92,0-2.84,0v0c-.55,0-1.22,0-1.61.07-.16,0-.38,0-.31-.07a6.26,6.26,0,0,1-1.07,0c.42,0-.15,0,.43,0a5.92,5.92,0,0,0-1.25,0c.2-.06-.41-.08-.67-.06l.38,0h-.8l.14-.08c-1.11-.1-2,.17-2.86,0-.29.06.61,0,.34.11-.51,0-1-.13-1.21-.13-.7,0-.66.12-1.39.09.09,0,.18.11-.37.14s-.63-.12-.31-.15c.12,0,.18,0,.18,0,.17,0,.38,0,.18-.06l-.07,0c-.25,0-1,0-.79-.08-.39,0-.17,0,.12.06-.66,0-1,0-1.71,0,.11,0,.21.05.1.05a5.68,5.68,0,0,0-1.11.07c-.38,0,.14-.11-.54-.07-.41,0-.09-.08.08-.1a9.79,9.79,0,0,1-1.51,0l.33,0h-.52l.19.06c-.19,0-.35,0-.35,0-.2,0,.15.1-.24.15s-.78,0-.86,0c.8,0-.09-.08.59-.09h-.48s0,0,.08,0c-.77-.07-.35.09-1.15.09.1,0-.18-.08-.31-.07.32,0,.15.07-.14.11a5.78,5.78,0,0,0-.82,0l.3,0a3.26,3.26,0,0,1-.71.05s.32,0,.2,0c-.39.08-.89-.08-1.44,0-.25,0,0-.08-.25-.1-.62.06-.67-.06-1.31,0,.19.06.22,0-.24.1l1.06,0-.68.09c.32,0,.68,0,.87,0-.33,0-.29,0-.14.08-.44-.09-.87.05-1.38,0l0-.15c-.76-.07-1.36.08-2.35,0l.32,0a6.89,6.89,0,0,1-.93,0s-.17-.07-.31-.1c0,0-.73,0-.82.1l-.44-.07c-.8,0-.91.14-1.68.12.23-.05-.12-.09.4-.13a1.47,1.47,0,0,0-.49,0c-.15,0-.71.07-.95,0a1.09,1.09,0,0,1-.43.07s0,0,0,0-.45,0-.2.09c-.79-.15-2.21,0-2.9-.12l-1.75,0s0,0,.1,0c-.7,0-.43.14-1.23.09-.41-.08.42,0,.17-.07s-1,0-1.5-.07h.13c-.41-.06-1,.06-1.67,0,0,0,0,0,0,0a18,18,0,0,1-2,.13c.2-.06.29,0,.17-.1-.29,0,.08.1-.49.12a2.49,2.49,0,0,1-.66-.13h.55a4.47,4.47,0,0,0-1,0l0,0c-.84,0-.85.11-1.75.1l.09,0c-.49.1-.41-.05-.9,0l-.15-.1c-.32,0-1.13.1-1.72.11.33-.07,1-.11,1.43-.15a9.34,9.34,0,0,0-1.26.06,2.4,2.4,0,0,1,.42,0,8.22,8.22,0,0,1-1.55.11c.11-.19-1.67,0-2.13-.2-1.13.07-2.25,0-3.56,0,.47.15-.38,0-.3.16a2.5,2.5,0,0,1-.45,0l-.93-.09c-.22,0,.29,0,.26-.07-.67,0-.28-.06-.73-.11.09.05-.23.08-.62.06l.54.07c-.94.08-.81-.13-1.76,0l.3,0a18.18,18.18,0,0,0-2.27.12c-.09,0-.2-.06,0-.07-1.16,0-2.59.13-3.49.06l.09,0a2.75,2.75,0,0,1-.65,0s.09,0,0,0a5.62,5.62,0,0,1-.86,0l.25,0c-1.13,0-1.74.1-2.69.13,0-.11-.89-.15-1.33-.16l0,0c-1.32,0-2.24.09-3.46.13-.76-.12-2.57,0-3.79-.12.19,0,0,.09-.25.1s-.79.08-.75,0h.1a4.75,4.75,0,0,0-1.26-.08l-.08.13c-1.2-.19-3.15.07-3.8-.1-.29,0-.65,0-.94.07l0-.07c-.8,0-1.2,0-2.2,0l.2-.05c-.56,0-.71.2-1.22.21l-.16-.11c-1,0-2-.09-2.93,0,0,0,0,0,.2-.05-.46,0-1.78-.07-1.61.07a5.9,5.9,0,0,0-1.53,0l.08-.07a4.55,4.55,0,0,1-1.08.14c-.15,0-.13-.06.07,0-.49,0-.38.07-1,0l.22,0a2.27,2.27,0,0,0-.74.07,3.19,3.19,0,0,1-1-.08,1.61,1.61,0,0,1-.64.07s.07,0,.12,0c-.84,0-1.26.08-1.84,0,0,0,0,0-.1,0h1.16c0-.06-.54-.08-.11-.16a11.47,11.47,0,0,1-1.71.12l-.07,0H70a2.09,2.09,0,0,0-.33,0l-.44,0a4.47,4.47,0,0,0-.89,0c0,.07-.33.06,0,.12h1a2.32,2.32,0,0,1-.74,0l-.38.11c-.37-.1-1.08-.15-1.18-.21a18,18,0,0,0-2.46.16.67.67,0,0,1-.36-.06c.14,0,.3,0,.37,0a8.81,8.81,0,0,0-1.5.11c-.59,0,.33-.08-.48-.07l.11,0c-1.6-.15-2.6.24-4.37,0a.71.71,0,0,1,.21,0c-2-.08-4.16.08-6.15-.05a3.51,3.51,0,0,0-1,.08l-.12-.08-.59.09c-.84.06-1.45-.19-2.51-.06l.14.05a6.67,6.67,0,0,1-1.14,0,.51.51,0,0,1-.27,0v0l-.94.07c-.73,0,.11-.16-.95-.16-.39,0-1.12.12-1,.14s.41,0,.42.06l-.36,0c-.07.12-.34.24.54.32l.62-.07.2.06h-.52a1.79,1.79,0,0,0,.69,0,.65.65,0,0,0,.26.06l.6-.11c.07,0-.27.09.13.12s-.27-.1.2-.14c.29.05.21.1.55.05,0,0,0,0-.16.06a8.35,8.35,0,0,0,1-.08c.31.07,1,0,1,.09a5.31,5.31,0,0,1,.82-.09c-.52.13,1.06,0,.92.15A20.12,20.12,0,0,1,53,48.88a.55.55,0,0,1-.17,0,7.17,7.17,0,0,1,.74.07c0-.1.64-.12,1-.18.47.09-.28.12-.14.21,0-.08.81-.08.65-.15a1.34,1.34,0,0,1,.49.11c.06-.12.33,0,.63-.1.52.06.13.11.7.08C57.11,49,56.6,49,56.6,49Zm13.51-.21h0Zm1.14,0h-.49s0,0,.12,0C70.81,48.77,71.08,48.79,71.25,48.81Zm-2.4-.49a.55.55,0,0,1,.26,0h-.34Z"/><path class="cls-10" d="M68.52,48.41h-.07l.11,0,.06,0Z"/><path class="cls-10" d="M171.43,48.52h0Z"/><polygon class="cls-10" points="86.92 48.94 86.92 48.92 86.82 48.94 86.92 48.94"/><path class="cls-10" d="M177.68,48.76l.08,0Z"/><path class="cls-10" d="M180.38,48.77l.38,0Z"/><path class="cls-10" d="M182.45,48.81l0,0h0Z"/><path class="cls-10" d="M149.44,48.89h0Z"/><path class="cls-10" d="M159.26,48.73l-.32,0C159.12,48.76,159.26,48.77,159.26,48.73Z"/><path class="cls-10" d="M138.47,49h0Z"/><path class="cls-10" d="M158.49,48.76a2.93,2.93,0,0,0,.46,0A4.52,4.52,0,0,0,158.49,48.76Z"/><path class="cls-10" d="M191.45,48.84h0Z"/><path class="cls-10" d="M191.57,48.83h0Z"/><path class="cls-10" d="M191.91,48.8l-.23,0A.82.82,0,0,0,191.91,48.8Z"/><path class="cls-10" d="M188.71,48.81l0,0Z"/><path class="cls-10" d="M187.87,48.81c.2,0,.5.05.78,0l0,0C188.54,48.87,188.06,48.77,187.87,48.81Z"/><path class="cls-10" d="M184.38,48.5l.7,0c-.12,0-.28-.06,0-.07C184.24,48.37,185.3,48.51,184.38,48.5Z"/><path class="cls-10" d="M182.21,48.46c.38,0,0,0,0-.05C182,48.43,181.93,48.44,182.21,48.46Z"/><path class="cls-10" d="M166.53,48.46l0-.06C166.28,48.4,166.56,48.42,166.53,48.46Z"/><polygon class="cls-10" points="163.53 48.79 163.81 48.83 163.95 48.77 163.53 48.79"/><polygon class="cls-10" points="161.76 48.33 161.88 48.33 161.4 48.35 161.76 48.33"/><path class="cls-10" d="M135.42,48.36l.09.08C135.7,48.42,135.74,48.33,135.42,48.36Z"/><path class="cls-10" d="M124,48.44a1.7,1.7,0,0,0-.64,0C123.66,48.42,123.91,48.45,124,48.44Z"/><polygon class="cls-10" points="89.94 48.31 90.17 48.28 89.73 48.3 89.94 48.31"/><text class="cls-11" transform="translate(58.49 39.04) scale(1.69 1)">2</text><path class="cls-9" d="M70,43.62v-4c1.24-.5,1.44-1.76,1.93-2.76,2.56-5.17-.37-12.46,6.2-16.1.07,0,0-.32,0-.48-1-5.48,2.26-8.51,6.19-11.42C87.73,6.35,90.79,3.38,94,.62h4c2.69,4.67,4.51,9.86,9.62,12.91,1.86,1.11,2.3,3.85,2.44,6.3a72,72,0,0,1-3,24.59c-.94,3.2-2.74,4.42-5.74,4.2a45.54,45.54,0,0,1-5.31-1l-1.46-.19c3.84-4.19.49-9.24,1.21-14.9,2.65,3.73,3.61,6.77,3.33,10.12-.15,1.74-.6,3.32,1.84,3.79,2.15.41,3.27-.81,3.69-2.49,2.12-8.36,4.23-16.72,2.44-25.49a5,5,0,0,0-2.77-3.88C100.76,13,99,9.88,98,6.6c-1.22-4-2.84-3.35-5.27-1.32-3.3,2.75-6.12,6.1-10,8.12-1.28.66-1.55,2.15-1.71,3.47-.41,3.5.51,7.52-4.35,9-1.1.34-1,2.14-.79,3.2A15.23,15.23,0,0,1,74,38.68c-1.61,3.06-1.18,5.38,2,7V47.5C72.63,48.3,72,44.88,70,43.62Z"/><path class="cls-12" d="M94,.62c-3.21,2.76-6.27,5.73-9.66,8.24-3.93,2.91-7.19,5.94-6.19,11.42,0,.16.06.44,0,.48-6.57,3.64-3.64,10.93-6.2,16.1-.5,1-.69,2.26-1.93,2.76,0-12.07.06-24.14-.06-36.21,0-2.18.21-3,2.73-2.87C79.77.78,86.89.62,94,.62Z"/><path class="cls-13" d="M96,47.62a45.54,45.54,0,0,0,5.31,1c3,.22,4.8-1,5.74-4.2a72,72,0,0,0,3-24.59c-.14-2.45-.57-5.19-2.44-6.3-5.11-3-6.93-8.23-9.62-12.91,4.31,0,10.24-1.67,12.48.48s.52,8.11.52,12.4c0,11.12-.07,22.23.07,33.35,0,2.26-.32,2.89-2.77,2.85-10.78-.18-21.58-.44-32.34.08-5.19.25-7.06-1.1-6-6.15,2,1.26,2.63,4.68,6,3.88,3.72.55,6-.21,5.9-4.82,0-2.81,1.12-.42,1.72.05C86,48.39,90,50,96,47.62Z"/><path class="cls-12" d="M76,45.68c-3.17-1.62-3.61-3.94-2-7a15.23,15.23,0,0,0,1.86-9.62c-.16-1.06-.31-2.86.79-3.2,4.86-1.48,3.93-5.5,4.35-9,.16-1.32.43-2.81,1.71-3.47,3.93-2,6.74-5.36,10-8.12,2.43-2,4.05-2.64,5.27,1.32,1,3.28,2.76,6.38,6.28,8a5,5,0,0,1,2.77,3.88c1.79,8.77-.33,17.13-2.44,25.49-.43,1.68-1.54,2.9-3.69,2.49-2.44-.47-2-2-1.84-3.79.28-3.35-.68-6.39-3.33-10.12-.72,5.66,2.63,10.71-1.21,14.9-4.12.19-7.42-1.25-9.68-4.8.16-2-.12-4.44-2.2-4.75-2.44-.36-2.91,2.35-3.14,4.16C79.22,44.36,78.41,45.67,76,45.68Z"/><path class="cls-9" d="M76,45.68c2.43,0,3.24-1.32,3.54-3.63.23-1.81.7-4.52,3.14-4.16,2.08.3,2.36,2.72,2.2,4.75l-1.25.11c-.61-.47-1.77-2.87-1.72-.05C82,47.29,79.7,48.06,76,47.5Z"/><path class="cls-9" d="M83.6,42.74l1.25-.11c2.26,3.55,5.57,5,9.68,4.8l1.46.19C90,50,86,48.39,83.6,42.74Z"/></g></g></svg>