<svg xmlns="http://www.w3.org/2000/svg" viewBox="0 0 738.1 337.98"><defs><style>.cls-1,.cls-11,.cls-2,.cls-9{fill:#30b1ff;}.cls-1{stroke:#fff;stroke-width:2px;}.cls-1,.cls-11{stroke-miterlimit:10;}.cls-2{font-size:115px;}.cls-11,.cls-2{font-family:Modern-Regular, Modern No. 20;}.cls-3{font-size:53px;font-family:BellMT, Bell MT;}.cls-4{letter-spacing:-0.01em;}.cls-5{letter-spacing:0.23em;}.cls-6{letter-spacing:-0.06em;}.cls-7{letter-spacing:-0.11em;}.cls-8{letter-spacing:0em;}.cls-10{fill:#4abbff;}.cls-11{font-size:57.44px;stroke:#30b1ff;}</style></defs><title>no Space_1</title><g id="Layer_2" data-name="Layer 2"><g id="Layer_1-2" data-name="Layer 1"><path class="cls-1" d="M244.82,191.66c-3,.52-2.7,2.9-2.85,5,.84,2.57,2.17,4.17,5.32,4.13,12.79-.13,25.58,0,38.37-.05,1.5,0,3,0,4.11-1.34-14.54,1-29.1.17-43.65.4-2.06,0-2.57-1.11-2.29-2.85S244.48,193.43,244.82,191.66Z"/><path class="cls-1" d="M289.76,199.43c1.24-24.66-3.59-48.57-7.94-72.67-2.75-15.23-5.47-30.32-10.9-44.83a92,92,0,0,0-13.27-24.42,34.73,34.73,0,0,0-25.88-14c-9.45-.73-17.56,3.65-21.93,13.31-8,17.67-7.34,35.14,2.59,52,5.43,9.24,12.58,17.15,19.49,25.24,2.13,2.49,3.07,4.7,2.1,8.05-1.94,6.75-3.16,13.65-1.2,20.68-2.79,3.56.9,5.53,2,8.13a69.55,69.55,0,0,1,9.45,7.5c2.54,2.33,3.08,4.34.89,7-1.07,2.26-3.15,4.11-2.74,7,0,1,.11,2,.2,3,.36,3.81,2.2,4.93,6.13,4.83,12.08-.33,24.18-.09,36.28-.15C286.6,200.1,288.35,200.77,289.76,199.43Z"/><path class="cls-1" d="M312,59.83c4.41,4.33,4.41,4.33-2.11,8.16,3.61.74,3.62.75,7.6-.66.92-.33,1.86-1.06,2.73-.14s.22,2-.32,2.72c-4.22,5.67-3.33,11.57-2.28,18.2,3.15,19.92-5.84,35.92-18.74,50-8.08,8.8-8.57,9.1-3.91,20,2.81,6.56,5.46,13.21,8.77,19.52,2.11,4,1.24,6.41-2.67,7.6-6,1.83-6.43,6.28-6.27,11.4.08,2.64,1.18,3.47,3.64,3.46,10.33-.06,20.65-.1,31,0,2.61,0,3.32-1.39,4-3.45a372.75,372.75,0,0,0,14.43-60.45c2.68-17.79,4.71-35.6,3.14-53.66-1.77-20.33-16.23-30.64-32.27-35.55-3.08-.94-2.61,1.45-2.82,3.2C315.45,53.72,317.08,58.09,312,59.83Z"/><path class="cls-1" d="M229.6,154.93c.77-5.71-.66-11.44,1.16-16.94.36-1.1-.65-1.81-1.4-2.45-9.59-8.19-15.69-18.91-21.29-29.9-1.81-3.55-4.07-4.62-7.85-4.46-16.64.7-24.77,10.67-20.72,26.93,3,12,1.48,22.19-7.16,31.37-9.77,10.39-9.47,22.79-6.12,35.58.91,3.47,2.71,5.09,6.69,5,10.49-.29,21,0,31.49-.13,1.55,0,4.17,1.14,4.34-1.76.14-2.44,1.15-5.69-2.63-6.6-4-1-3.25-3-1.82-5.74,4.85-9.28,9.72-18.55,14.18-28,1.76-3.73,3.63-5.29,7.6-3.43A13.3,13.3,0,0,0,229.6,154.93Z"/><path class="cls-1" d="M235.33,170.08l-4-6.7c-2.26-1.82-2.3-6-6.55-5.82-1.55.07-3.26-1.13-4.44.71a5,5,0,0,0-.38,5.18c1.42,3,4,4.81,6.31,6.95,2,1.88,3,3.77.71,5.86-2.7,2.47-2.19,5.29-1.39,8.23.65,2.4,1.38,4.77,2.08,7.16,1.66,5.68,6,8.29,11.86,7.11.4-.08.63-1,.94-1.56,1.2-1.53,1.19-3.75,2.85-5l2.66-5c2.27-2,.69-3.57-.53-5.34C242.52,177.57,237.92,174.69,235.33,170.08Z"/><text class="cls-2" transform="translate(84.05 196.65) scale(0.72 1)"><tspan xml:space="preserve">T         Aerospace</tspan><tspan class="cls-3"><tspan x="-116.08" y="63.6">Squaring solutions through the p</tspan><tspan class="cls-4" x="600.56" y="63.6">ow</tspan><tspan x="663.21" y="63.6">er o</tspan><tspan class="cls-5" x="746.05" y="63.6">f</tspan><tspan x="772.94" y="63.6" xml:space="preserve">  </tspan><tspan class="cls-6" x="799.44" y="63.6">U</tspan><tspan class="cls-7" x="836.55" y="63.6">A</tspan><tspan class="cls-8" x="867.37" y="63.6">V</tspan></tspan></text><line class="cls-9" x1="59.83" y1="199.06" x2="677.83" y2="199.06"/><path class="cls-10" d="M677.83,201.72c.32-.34.14-1.13-.75-1l-.64,1.32Z"/><path class="cls-10" d="M671.8,199.26c-1.05.64-2.27,1.77-1.59,3,1-1.27,1.3-.74,2.42-2.26.9-.15,1.57.42,1.41.91.32-.34,1.39.29,1.88-.54a3.45,3.45,0,0,0-4.19-.22C671.4,199.85,671.72,199.51,671.8,199.26Z"/><path class="cls-10" d="M584.15,197.2l.56.16A1.46,1.46,0,0,0,584.15,197.2Z"/><path class="cls-10" d="M529.85,196.47c.41,0,.59-.16.61-.28C530.08,196.28,529.76,196.36,529.85,196.47Z"/><path class="cls-10" d="M520.58,195l.55.09C520.92,195,520.71,194.92,520.58,195Z"/><path class="cls-10" d="M584.15,197.2l-1.45-.42C582.6,197.22,583.45,197.1,584.15,197.2Z"/><path class="cls-10" d="M659.71,202.46a2.11,2.11,0,0,0,.79-.35c-.25.06-.49.11-.74.14A1.79,1.79,0,0,1,659.71,202.46Z"/><path class="cls-10" d="M608.09,196.13h.44a3.28,3.28,0,0,0,.37-.54Z"/><path class="cls-10" d="M626.46,195.92c-.42,0-.56,1.08-.72,1.57a1.33,1.33,0,0,1,.91-.77A1.91,1.91,0,0,0,626.46,195.92Z"/><path class="cls-10" d="M655.59,197.9l.52-.15C656,197.8,655.75,197.84,655.59,197.9Z"/><path class="cls-10" d="M594.94,195.88a.94.94,0,0,0-.17-.4A.65.65,0,0,0,594.94,195.88Z"/><path class="cls-10" d="M81.12,204.33a1.32,1.32,0,0,0,0-.2C81,204.25,81,204.33,81.12,204.33Z"/><path class="cls-10" d="M59.83,198.76l.3-.06a4.32,4.32,0,0,0,.06-.63Z"/><path class="cls-10" d="M503.62,193.57l.08,0C504.14,193.47,503.88,193.49,503.62,193.57Z"/><path class="cls-10" d="M347.85,194.4c1.76,1-2.87,1.29-.22,2.41C347.39,196.37,350.05,195.06,347.85,194.4Z"/><path class="cls-10" d="M659.23,202.31c-.25,0-.5,0-.75,0A2.2,2.2,0,0,0,659.23,202.31Z"/><path class="cls-10" d="M347.64,196.81h0l.27.11Z"/><path class="cls-10" d="M464.52,194.25a1.38,1.38,0,0,0,.4.49C464.91,194.63,464.82,194.49,464.52,194.25Z"/><path class="cls-10" d="M493.65,195.85l-.72-.15A2.54,2.54,0,0,0,493.65,195.85Z"/><path class="cls-10" d="M449.4,195.84c-.39-.09-.52-.24-1.06-.09a.69.69,0,0,0,.16.14A.82.82,0,0,1,449.4,195.84Z"/><path class="cls-10" d="M433.66,195.84a2.79,2.79,0,0,0,.29.23l.5-.06Z"/><path class="cls-10" d="M129,203.79a3.23,3.23,0,0,1-.73-1C128.47,203.58,126.16,203.87,129,203.79Z"/><path class="cls-10" d="M659.7,201.83a.62.62,0,0,1-.47.48l.52-.06C659.8,202.08,659.81,201.93,659.7,201.83Z"/><path class="cls-10" d="M448.76,204.71l-2.5-.17A17.1,17.1,0,0,0,448.76,204.71Z"/><path class="cls-10" d="M241.87,203.63l-.57.13A.73.73,0,0,0,241.87,203.63Z"/><path class="cls-10" d="M438.84,204.71a3.7,3.7,0,0,0-1.41-.78,1.05,1.05,0,0,0-.29.29Z"/><path class="cls-10" d="M128.22,202.77h0Z"/><path class="cls-10" d="M111.75,205.44c2.38,0,1.12-1.45,1.62-2.29,2.84-.42,1.32,1.09,2.28,1.84,1.78-.39,3.14-1.75,4.46-1.69.1.24.36.33.05.64,1.88-1.17,5.57-.06,7.76-1.53a.85.85,0,0,1,.29.37,3.67,3.67,0,0,1-.34-2c1.07,0,2-.93,2.38,0-.65,0-.71.36-1,.66l1.12-.42c1,1.39-1.53.48-1.53,1.51,2.18-.45,4.73-1.6,6.4-1.21.35,1.36-3.91.46-1.68,1.67l-2.59-.52c2,2.14-1.57-.15.24,2.14,3.41.39,3.81-.69,7.21-.3.76-.75-.25-1.12.51-1.87,4.83-1.36,3.8,3.42,7.35,1.61.92-.91,1.28-2.62,3.8-1.71l-.86,1.54c3.3.15,1.88-2.21,5.34-1.17-.61.6-2.59.51-2.09.69,2.24,1.21,1.58-.87,3.3-.87l.36,1.36c3.51-.21,7.38-1.2,11.26-1.44-.22.4-.88.83,0,1.25,4.9-.68,10.47.17,15.2,1l1.81-1.17c.42,0,.78.53.32.76,1.84.45.1-.75,1-1.21,1-.08,1.39.67.72,1,3.25-1,9.27-2.14,12.69-.89l-.67.35c2.67.48,3-2.41,5.49-1.31l-.47.21c5.79.51,12.19-.57,16.61,1.21.84-1.69,5.73.75,6.1-1.6,3.31,1.17,2.36,1.59,7,2.38,1.24.11,1.85-1.47,3.39-1.72l0,1.23,2.09-1.29,1.11,1.47,1.44-.32c-.57-.07-1.22-.55-1.13-.91,2.25-.56,5.49.86,5.55,1.49l5.33-1c-.12.5-1,.67-1.72,1,2.85-1.26.52,1.3,3.12.15-.35-.28.19-.73.25-1,1.3.75,4.26.75,6.45.44l-.42.85c4,.22,8.34-.41,12.77-.39-1.59-.4-1.23-1.87.08-2l.52,1.3c.84-.81-1.36-.49.37-1.48,1.66.15,1.11,1.48.16,1.91l2-.45c.12.39-.35.59-.48,1.09.83-.81,3.48,1.31,4.67-.1l.11.39c4.44,0,6.45-.44,10.06-.5.07-1.13,1.48-.88,2.56-1.78,2.66.36,5.6,1.24,8.8,1.15,2.25-.56.66-1,1.67-1.62.17,1,3.36.93,1.7,1.67a57.72,57.72,0,0,0,9.76-1c-.53-.42-1.12-.6-.81-1,.88-.17,2,.43,1.88.92l-.23.11c5.45-1.54,12.58,3,16.92.85l-.24.11,4.5-1.11c2.07.18-1.24.77.29,1.4,4.86-1.71,7.67.25,11.67-.89,3.1,3,11-.21,15.16,1.72l-.24-.71c1.08-.7,1.31.41,2.1.57-.11-.55-1.17-.64-.5-1,9.15-.86,18.88,1,28.26,1.68,3.43.19,1.95-3.68,6.27-2l-1.23,1.32c6.92-1.58,14.15.05,20.93-1.29-.4.3-.42.7-1.08.7,1.43,1,5.29,0,5.32-.74,1.06.09.24.71.89,1.11,1.44.57,3.6-1.23,4.37-.27.13.16-.4.31-.67.39.94-.46,4.36.12,3.46-1,2.54.53,4.87-.49,6.89.16,1.32-1.24,4.35.6,4.77-1.16-.18,1.81,4.46,1.46,6.07.61-.54.55,1.4.57.77,1.32,1.84,0,3.52-.36,3.2-1.29,3.38,2.16,6.8-1.74,8.7,1,5.45-1,10.5-1.63,15.4-2.05-.18,1.8-5.42.18-5.21,2.07,4.65-.74,7.34-2.29,11.95-1.86,1.19.25-.68.78-1.08,1.09,4.65-.74,9,.16,13.12-.82,0,.17-.46.35-.88.49.82-.06,1.9.27,1.8-.56l-.79.22c-1.3-1.19,3.24-2.49,3.38-3.12-1.38,2.35,4.08.59,1.89,3.56.54-.15,1.21-.54,1.09-1.09.8.16,1,.48.24,1.1,2.92-.45,1.88-1.32,4.53-1.3,0,.4-.54.55-.82,1a6.82,6.82,0,0,1,4.92-1.21c-.13.24.13.55-.54.54,3.84-.12,6.54-2.06,10.75-1.31-1.24,1.73,1.43.57,1.66,2.06l2.26-.45-.91-.72c2,0,3.74-1.06,5.44-.57l-1.47.62,3.72-.28-2.1-.57c2-.77-.22-1.89,2.43-1.47-.54.15,2,0,3,.9h0a4.63,4.63,0,0,1,3.46-.61c.38.48-.31,1.65-.06,2,1-1.25,4.65-.35,5.87-1.68a1.19,1.19,0,0,0-.3,1.26l.81-1c.92.32,1.05.48.9,1.11,2.76.19-.88-1.89,2.4-1.08-.26.08-.13.23-.67.39,3.3.43,6.37-.64,9.39-.14.89,1.5-2.65.37-1.62,1.64,4.37-.27,9-1.8,13.26-1.45l-.79-.17c.59-2.12,3.15,1,5.28,0-.52.16-.69,1.18-.54.94,2.89.34,5.91-.52,10.3-1.19l-.54.54c1.7.49,4.49.28,6.33.53.55-.54,1.6-.46,1-1.25,5.68,3.1,10.83-1.66,15.87.92-.6,0-1.44.48-1,.48l4.29-.5c-.34-.92-.56-.56-1.46-1.28a4.41,4.41,0,0,1,2.82-1c-1.93.61,0,1.48.85,2-.14-.28.15-.6.08-.88,2.24,1.64.38-1.86,3.44-.75l-.16.49c1.15-.25,2.2-.89,3.44-.75.51,1.07-1.22.5-1.3,1.38,1.73-.06,3.42-2,5-1-.74.3-1.8.3-2.53.6,1.71,1.26,1.91.94,3.18,1.14l-.12,0,2.94.57-.75-.34c2.17-2.79,4.42-.51,7.35-2.33-2.84,1.73-.47,1-.69,2.21.75.34,1.88.71,1.56,1.05,1.38-1,2.31.77,4.26-.66.09.39,1.48,0,1.17,1,1.8-.31-.42-.68-.27-1.17,2.77-1.33,6.51,1.62,10.5-.21,3.44-.75,4.07-2.07,7.26-2.72,1.08.62-.88,1.42-.88,1.42a7.33,7.33,0,0,0,4.68,0c-.33.34,0,.63.51,1.07,1.31-.1.88-1.42,2.61-.85a5.41,5.41,0,0,1-1.31,1.57c1.55-.36,3.08-1.09,4.68-1.44.42.68-1,1-1.53,1.48,1.8-.31,4.66-.62,5.22-1.69l-1.15-.38c.66-.05.34.92-.15,1.12a1.45,1.45,0,0,1-2.31-.76l1.14-.25c-1.17-2.29-4.58.37-6.88.23l1-1.66-2.36,1.38c-.5-.43-.84-1.36.29-1.61-1.65-.82-1.46.59-2.87-.33-.16-.14-.09-.22.06-.29l-1.61.5c.32-.35-.27-1.17.72-.93-2.89-1-4.66,1.25-5.74,0l.24-.1c-4,.56-.39,1.22-3.39,2.66l-2-3-.39,1.22c-.41,0-1.23-.14-1.08-.62-1.54.84.26.53-.63,1.32-2-1.11-5.48.52-5.93-1.42-.71.93,1.9.72-.22,1.36-.61-2.09-2.45.36-4.27-.6.56-1.08,2.28-.51.46-1.47-1.1,1.83-3.54-.4-5.07-.05-.07,1.45-3.33.61-5.9,1.09.16-.49-4.84-.8-7.23-1.32l.07-.24c-.46,1.47-2.93,1.19-4.73,1.5.07-.88.39-1.23,1.37-1.62h-1.69a2.93,2.93,0,0,1-2,.89l.42-1.1c-2.25.06-4.53,1.29-7.42.56-.16,1,2.3,2.85-.76,3.54-.11-.55-.23-1.5.57-1.73-.26.07-.93.46-1.46.22l1.22-.93c-1.32-.41-.69.78-1.74.69,0-.79-.78-.56-.63-1.19.27-.08.92.33,1.32,0a5.44,5.44,0,0,1-3.1-1.21.89.89,0,0,1-.87,1.17c-2.25.06-.77-.95-2.08-1.36-.54.55-2,0-2,1.16-.66,0-.78-.56-1-.88-1.16.52-5.44.15-4.12,1.4l.3.08-.19.05h0c-3.81,1.17-7.92-.67-11.71-.16V197c-2.26.45-5,.27-6.64,1.12-.67,0-1.58-.72-1.29-1.19-1.73.3-1.92.74-4.42.09,1.74-.69-.6-.61,1.78-.5-2.24-.34-2.75-1-5.16.11.82-1-1.69-1.27-2.76-1l1.57.72a15.62,15.62,0,0,1-3.31,0l.58-1.33c-4.59-1.62-8.28,2.75-11.78,0-1.21.93,2.49.66,1.41,1.74-2.11-.18-4.31-2.09-5-2.09-2.89-.74-2.7,1.94-5.73,1.44.39.47.75,1.74-1.51,2.19-2.11-.18-2.6-2-1.26-2.37.51,0,.75.11.73.27.68-.17,1.58-.38.74-.89l-.27.47c-1-.48-4-.43-3.27-1.21-1.6.45-.68.78.5,1-2.71-.69-4.24,0-7-.48.44.26.85.82.41.81-4.09-.59-1.8.9-4.58,1.11-1.58-.72.56-1.73-2.23-1.12-1.7-.49-.36-1.26.32-1.65-2.54.92-4.75-.6-6.21-.77l1.34-.38a7.11,7.11,0,0,1-2.13.22l.76.95c-.79-.17-1.45-.17-1.44-.56-.81.62.62,1.58-1,2.43-1-.48-3.19.52-3.56-.74,3.3.43-.36-1.27,2.43-1.47a4.2,4.2,0,0,1-2,0c-.12-.14.11-.26.33-.33-3.16-1.13-1.45,1.42-4.72,1.4.42-.71-.76-1.35-1.29-1.2,1.32,0,.63,1.18-.58,1.73-2.1-.55-2.28.41-3.38.35l1.25.26c-.42.71-1.47.62-2.94.84-.12-.55,1.33-.38.81-.62-1.62,1.25-3.67-1.29-5.93-.45-1-.48-.1-1.33-1-1.66-2.54.92-2.75-1-5.41-.21.77,1,.9.72-1,1.65l4.38-.67L481,196.37c1.32,0,2.79-.6,3.58-.44-1.34.78-1.2.54-.57,1.33-1.81-1.43-3.59.83-5.68-.13l.06-2.36c-3.15-1.05-5.59,1.21-9.67.62l1.31.41c-.55.94-2.52.13-3.84.51.12-.79-.7-1.08-1.27-1.57.07.59-3-.05-3.36,1.52l-1.82-1c-3.3-.43-3.76,2.25-6.94,2,1-.86-.49-1.42,1.64-2-1.06,0-2-.15-2,.39-.62-.49-2.94,1.06-3.91.31-.45.35-.59,1.17-1.78,1.11-.13-.16,0-.39,0-.39,0,.39-1.86.53-.82,1.4-3.26-2.46-9.11.18-12-1.94-2.31.26-5.09.52-7.19.58.13-.24,0-.39.4-.31-2.89-.73-1.78,2.27-5.07,1.45-1.68-1.28,1.75-.69.7-1.17-.46-2.6-4,.35-6.19-1.16l.54-.15c-1.69-.88-4.13,1-6.9.8,0,0,.13-.23,0-.39-1.89,1.33-5.47,1.76-8.14,2.13.83-1,1.21-.54.7-1.57-1.19.15.35,1.66-2,1.95-.77-.56-2.49-1-2.72-2.15l2.25-.06c-1.15-1.43-2.91,0-4.09-.2l.15-.62c-3.44.2-3.49,1.77-7.19,1.66l.38.47c-2,1.56-1.7-.88-3.71.28l-.61-1.58a50.86,50.86,0,0,1-7.07,1.82c1.36-1.17,4.16-1.77,5.89-2.46-1.32,0-4.49.12-5.18.9.53-.15,1.2-.54,1.73-.3a10.07,10.07,0,0,1-6.39,1.82c.47-3.06-6.87-.77-8.78-3.15-4.66,1.13-9.25-.48-14.68-.3,1.93,2.38-1.59.07-1.25,2.51-1.27.16-1.75.12-1.86,0l-3.83-1.46c-.91-.71,1.2-.54,1.09-1.09-2.77-.19-1.16-1-3-1.69.38.87-1,1.25-2.54.92l2.22,1.13c-3.87,1.3-3.35-2.05-7.25-.76l1.23-.77c-2,.45-7.39,0-9.35,1.95-.35-.28-.82-1,.06-1.13-4.79-.29-10.65,2.09-14.37.88l.36-.6c-.89.17-1.55,1.12-2.67.52.06-.25.36-.6-.05-.63-.47.21-2.37,1-3.55.7l1-.67c-4.67-.78-7.16,1.64-11.08,2,0-1.76-3.66-2.33-5.5-2.62l.06-.25c-5.44-.22-9.23,1.46-14.27,2.15-3.12-1.91-10.58-.8-15.61-1.87.77.32-.13,1.37-1,1.55-1.18-.36-3.26,1.22-3.07-.39l.42,0c-.89-1.58-3.31-1.16-5.2-1.21l-.31,2.11c-4.95-3.07-13,1.13-15.66-1.62-1.19.53-2.67.52-3.86,1L232,194a47.56,47.56,0,0,0-9-.16l.83-.81c-2.31-.07-2.91,3.27-5,3.33l-.64-1.69c-4,0-8.09-1.46-12.07.08a.91.91,0,0,1,.83-.8c-1.89,0-7.32-1.14-6.64,1.18,0-1.51-4.15-.15-6.32.52l.34-1.11c-1.83,1.42-1.89,1.81-4.45,2.21-.61-.15-.53-.89.27-.61-2-.58-1.58,1.06-4,.46l.91-.71c-2.08-.09-1.92.3-3.06,1.13-1.31.45-3.95-.28-4.25-1.29a2.49,2.49,0,0,1-2.65,1.15c-.17-.38.28-.62.51-.73-3.48-.76-5.17,1.3-7.56.2a.81.81,0,0,0-.4-.67,37.71,37.71,0,0,1,4.78.17c0-1-2.23-1.21-.46-2.63-1.79.77-4.86,2.46-7,2a1.22,1.22,0,0,1-.29-.36l.23-.12a2.31,2.31,0,0,0-1.38.17,7.64,7.64,0,0,0-1.8-.31c-.26-.85-2.56-.46-3.67-.5.09,1.12-1.37.94,0,1.87-.18-.08.21-.13,1-.18a1.73,1.73,0,0,0,.47-.12l-.08.1c.73,0,1.68-.06,2.77-.08a2.76,2.76,0,0,1-3,.43,23.85,23.85,0,0,1-1.55,1.81c-1.52-1.57-4.46-2.42-4.87-3.38-3.4.63-8,.42-10.14,2.53-1,.27-1.11-.61-1.47-.94.56-.21,1.22-.18,1.52-.48-1.93.54-5.72.21-6.19,1.69-2.44-.67,1.37-1.36-2-1.12l.45-.45c-6.58-2.36-10.7,3.77-18,.74.51.19.76.27.86.52-8.32-1.34-17.15,1.25-25.36-.86-2.33-.43-2.59.52-4,1.23l-.51-1.21-2.44,1.39c-3.45,1-6-3-10.35-1l.56.81c-1.57-.15-5,.48-4.71-.46-.16.15-.51.85-1.13.42l0-.63-3.86,1.08c-3-.46.47-2.51-3.9-2.63-1.62.24-4.62,1.84-4,2.26.65,0,1.67.39,1.72,1l-1.48.33c-.27,1.86-1.41,3.77,2.23,5.07l2.54-1.14.82.9-2.14.06c1.21.85,2,.1,2.84-.42a1.74,1.74,0,0,0,1.06,1L70,202.39c.3.73-1.12,1.45.55,1.85,1.17-.83-1.12-1.63.81-2.18,1.21.85.86,1.54,2.28.81.2.48-.1.79-.67,1,1.27-.58,3.36-.24,4-1.23,1.27,1,4.28-.27,4.16,1.49a7.34,7.34,0,0,1,3.4-1.46c-2.13,2.11,4.36.12,3.8,2.39,1.57-1.9,5.69-.84,8.48-1.9-.16.15-.46.46-.71.36,1.57.16,2,.73,3,1.09.2-1.57,2.65-1.93,4-2.89,1.92,1.51-1.17,1.84-.56,3.29-.1-1.27,3.34-1.27,2.69-2.33,1.47.94,1.27.45,2,1.75.26-2,1.37-.33,2.59-1.54,2.13,1,.55,1.84,2.89,1.24C113.83,204.75,111.75,205.44,111.75,205.44Zm55.65-3.39v0l-1.15.06Zm4.68,0c-.57,0-1.28-.05-2,0-.16-.39,0-.79.48-.77C170.28,201.48,171.38,201.71,172.08,202Zm-9.89-7.79c.74-.16,1,.06,1.09.29-.35,0-.76.06-1.29.13,0,0-.07.09-.09.14A1.46,1.46,0,0,1,162.19,194.24Z"/><path class="cls-10" d="M160.86,195.72a1.44,1.44,0,0,1-.31.08,3.59,3.59,0,0,0,.44.25l.26-.35Z"/><path class="cls-10" d="M584.82,197.38l-.1,0a.56.56,0,0,1,.21.16C584.86,197.46,584.86,197.43,584.82,197.38Z"/><polygon class="cls-10" points="236.66 204.19 236.66 203.9 236.25 204.15 236.66 204.19"/><path class="cls-10" d="M610.58,201.24a.64.64,0,0,0,.34.29C610.9,201.46,610.75,201.35,610.58,201.24Z"/><path class="cls-10" d="M621.7,201.49l1.57.4A9.79,9.79,0,0,0,621.7,201.49Z"/><path class="cls-10" d="M630.26,202.05a1.55,1.55,0,0,0,.17-.48h0Z"/><path class="cls-10" d="M494.24,203.37a1.49,1.49,0,0,0-.33.05C493.13,203.64,493.66,203.56,494.24,203.37Z"/><path class="cls-10" d="M534.71,200.75a8.39,8.39,0,0,1-1.3.53C534.13,201.36,534.69,201.39,534.71,200.75Z"/><path class="cls-10" d="M449,204.73s0,0,0,0h-.28Z"/><path class="cls-10" d="M531.53,201.26a3.17,3.17,0,0,0,1.88,0A4.85,4.85,0,0,0,531.53,201.26Z"/><path class="cls-10" d="M667.34,202.56l.41,0a.27.27,0,0,1,0-.18Z"/><path class="cls-10" d="M667.8,202.43l.46-.13C668,202.3,667.86,202.3,667.8,202.43Z"/><path class="cls-10" d="M669.22,202l-1,.28C668.59,202.3,669,202.33,669.22,202Z"/><path class="cls-10" d="M656,202l-.13.41A.7.7,0,0,0,656,202Z"/><path class="cls-10" d="M652.57,202.16c.82.09,2.06.87,3.21.61l.11-.32C655.34,203.06,653.35,201.47,652.57,202.16Z"/><path class="cls-10" d="M638.21,197.12l2.88.33c-.5-.43-1.17-1,.14-1.12C637.6,195,642,197.3,638.21,197.12Z"/><path class="cls-10" d="M629.26,196.49c1.55-.2,0-.63.06-.88C628.35,196,628.11,196.11,629.26,196.49Z"/><path class="cls-10" d="M564.64,196.49l.16-1C563.6,195.61,564.79,195.86,564.64,196.49Z"/><polygon class="cls-10" points="552.29 201.78 553.45 202.41 554 201.47 552.29 201.78"/><polygon class="cls-10" points="544.99 194.49 545.51 194.34 543.52 194.71 544.99 194.49"/><path class="cls-10" d="M436.46,194.85l.36,1.26C437.63,195.88,437.8,194.47,436.46,194.85Z"/><path class="cls-10" d="M389.61,196.13a2.1,2.1,0,0,0-2.64-.42C388,195.8,389.07,196.3,389.61,196.13Z"/><polygon class="cls-10" points="249.09 194.08 250.03 193.66 248.26 194.01 249.09 194.08"/><text class="cls-11" transform="translate(130.83 157.05) scale(1.92 1)">2</text><path class="cls-1" d="M296.41,64.5a19.46,19.46,0,0,1-16-1.39c-2.9-1.61-5.06-3.59-2.46-7.08,1.14-1.54.3-2.75-.2-4.15a25.28,25.28,0,0,1-1.65-5.7c-.49-4.46.89-5.64,5.25-5.08,5.94.77,11.87,1.74,17.83,2.11,5,.31,9-2.93,13.5-4.56,1.45-.53.71-1.55.4-2.46-.73-2.16-2.07-4.2-4.13-4.74-4.52-1.18-5.37-4.46-6.27-8.34C300.94,15.7,296.94,9.38,292,3.6c-2.23-2.63-4.54-3.2-7.89-2-17.69,6.22-31.6,17.49-43.25,31.86-1.77,2.18-4.73,4.73-4.51,6.83.25,2.39,4.46,1.41,6.84,2.39,10.42,4.32,17.2,12.39,22.66,21.72,9.7,16.6,14.3,35,17.93,53.63,1.2,6.19,2.06,12.43,3.64,18.57.88,3.43,2.23,3.44,4.85,2.42a9.16,9.16,0,0,0,3.87-2.12c12.22-13.53,20.78-28.5,18.77-47.63-.14-1.32-.39-2.63-.65-3.93-.61-3.08-2-4.07-4.46-1.49-1.7,1.76-3.47,1.33-5.44.44C295.76,80.41,293.06,74,296.41,64.5Z"/><path class="cls-1" d="M312.77,45.45c-9.9,2.34-19.33,1.11-28.72,1.33-1,0-2.48-.65-3,.84-.47,1.28.57,2.15,1.3,3,5.11,6.06,9.71,6.73,15.77,2,1.47-1.13,2.61-.86,4.1-.48C310.11,54.21,310.12,54.18,312.77,45.45Z"/><path class="cls-1" d="M303.79,56.54c-1.24-.6-2.63-2-3.59.17-.68,1.52-.87,3.53.6,4.49s3.08,0,4-1.67C305.5,58.18,305,57.23,303.79,56.54Z"/><path class="cls-1" d="M303.79,56.54l1,3a5,5,0,0,0,4.61-.47C307.69,57.53,307.29,54.06,303.79,56.54Z"/><path class="cls-1" d="M236.81,169.57c1.14,5.32,6.06,7.88,8.81,12,1,1.58,3,2.75,1.87,5.09,2.75-.73,3.64-2.34,1.65-4.56C245.22,177.78,241.67,173,236.81,169.57Z"/></g></g></svg>